<?xml version="1.0" standalone="no"?>
<!DOCTYPE svg PUBLIC "-//W3C//DTD SVG 20010904//EN"
 "http://www.w3.org/TR/2001/REC-SVG-20010904/DTD/svg10.dtd">
<svg version="1.0" xmlns="http://www.w3.org/2000/svg"
 width="300.000000pt" height="182.000000pt" viewBox="0 0 300.000000 182.000000"
 preserveAspectRatio="xMidYMid meet">
<metadata>
Created by potrace 1.10, written by Peter Selinger 2001-2011
</metadata>
<g transform="translate(0.000000,182.000000) scale(0.100000,-0.100000)"
fill="#000000" stroke="none">
<path d="M1136 1364 c-3 -9 -6 -170 -6 -358 0 -253 3 -345 12 -354 17 -17 709
-17 726 0 17 17 17 699 0 716 -9 9 -105 12 -369 12 -316 0 -358 -2 -363 -16z
m244 -49 c0 -25 -4 -45 -10 -45 -5 0 -14 -9 -20 -21 -9 -16 -8 -26 5 -45 18
-28 41 -31 67 -7 24 21 23 50 -2 65 -15 10 -20 24 -20 55 l0 43 95 0 96 0 -36
-31 c-34 -31 -35 -32 -35 -109 0 -57 -4 -81 -15 -90 -32 -26 -12 -80 30 -80
45 0 63 59 25 82 -17 11 -20 24 -20 84 0 71 0 72 40 108 l41 37 116 -3 116 -3
0 -95 0 -95 -61 -3 c-51 -2 -64 -7 -81 -27 -11 -14 -29 -25 -43 -25 -51 0 -68
-61 -22 -82 35 -16 59 0 60 40 1 51 28 72 93 72 l56 0 -2 -177 -1 -178 -55 -3
c-54 -3 -55 -2 -78 35 -15 23 -24 54 -24 78 0 36 -3 40 -28 43 -34 4 -57 -13
-57 -42 0 -28 18 -46 45 -46 13 0 29 -15 47 -45 l28 -45 63 0 64 0 -2 -47 -2
-48 -226 -3 -227 -2 0 63 c0 53 4 67 23 85 15 14 30 19 45 15 30 -7 52 13 52
48 0 39 -32 56 -66 34 -14 -9 -24 -25 -24 -38 0 -13 -11 -34 -25 -47 -22 -21
-25 -32 -25 -92 l0 -69 -112 3 -113 3 -3 68 -3 67 63 0 63 0 25 45 c17 31 31
45 45 45 27 0 45 18 45 45 0 27 -18 45 -46 45 -30 0 -47 -24 -41 -57 3 -18 -3
-39 -19 -65 -23 -36 -26 -38 -79 -38 l-55 0 0 160 0 160 53 0 c63 0 90 -22 91
-72 1 -40 25 -56 60 -40 46 21 29 82 -22 82 -14 0 -33 11 -44 25 -17 22 -27
25 -79 25 l-59 0 0 93 c0 52 3 97 7 100 3 4 55 7 115 7 l108 0 0 -45z"/>
<path d="M805 528 c-3 -8 -4 -61 -3 -119 3 -104 3 -104 28 -104 l25 0 0 115
c0 112 -1 115 -23 118 -12 2 -24 -3 -27 -10z"/>
<path d="M1092 423 c3 -110 4 -118 23 -118 15 0 21 8 23 30 5 47 17 49 46 5
18 -28 33 -40 49 -40 39 0 38 11 -5 62 l-41 49 34 35 33 34 -31 0 c-23 0 -38
-9 -57 -31 l-26 -31 0 61 c0 59 -1 61 -25 61 l-26 0 3 -117z"/>
<path d="M1988 535 c-4 -4 -4 -23 -1 -42 l6 -35 -25 16 c-46 30 -108 -13 -108
-76 0 -51 12 -72 50 -88 25 -10 34 -10 53 3 21 14 24 13 33 -1 6 -9 17 -13 27
-9 16 6 17 20 15 119 -3 105 -4 113 -23 116 -12 2 -24 0 -27 -3z m-14 -111
c31 -31 13 -74 -31 -74 -21 0 -43 25 -43 49 0 14 29 41 45 41 7 0 21 -7 29
-16z"/>
<path d="M618 412 c-21 -54 -38 -102 -38 -105 0 -4 12 -7 26 -7 17 0 28 6 31
20 4 16 14 20 43 20 30 0 40 -5 45 -20 4 -13 15 -20 31 -20 13 0 24 3 24 7 0
4 -17 51 -37 105 -34 88 -40 98 -63 98 -22 0 -29 -10 -62 -98z m81 -19 c1 -7
-8 -13 -19 -13 -23 0 -24 8 -9 47 l12 28 7 -25 c5 -14 8 -31 9 -37z"/>
<path d="M950 483 c-38 -14 -60 -47 -60 -88 0 -66 61 -109 121 -85 46 19 35
46 -17 42 -28 -2 -45 2 -53 12 -12 14 -6 16 53 16 53 0 66 3 66 15 0 32 -30
73 -61 84 -18 6 -32 11 -33 10 -1 0 -8 -3 -16 -6z m60 -61 c0 -5 -16 -8 -35
-8 -38 0 -45 9 -18 25 18 9 53 -2 53 -17z"/>
<path d="M1313 478 c-47 -23 -37 -78 17 -96 42 -15 38 -34 -7 -30 -49 4 -58
-23 -14 -42 39 -16 76 -6 97 24 20 32 5 62 -42 82 -19 8 -32 19 -29 24 4 7 14
6 27 -1 26 -14 58 10 36 29 -21 17 -61 22 -85 10z"/>
<path d="M1495 476 c-29 -13 -55 -51 -55 -82 0 -30 30 -71 59 -84 26 -10 35
-10 54 3 21 14 24 13 33 -1 6 -9 17 -13 27 -9 14 5 17 21 17 92 0 77 -2 85
-19 85 -11 0 -23 -5 -26 -10 -4 -7 -14 -5 -28 5 -25 18 -24 18 -62 1z m70 -60
c19 -29 10 -54 -21 -62 -30 -8 -54 11 -54 40 0 47 49 62 75 22z"/>
<path d="M1730 473 c-17 -12 -25 -13 -28 -5 -2 7 -12 12 -23 12 -18 0 -20 -6
-17 -87 3 -86 3 -88 28 -88 23 0 25 3 22 39 -4 52 4 82 24 90 30 11 44 -13 44
-76 0 -56 1 -59 23 -56 18 2 23 10 25 48 5 73 -5 108 -38 125 -35 18 -31 18
-60 -2z"/>
<path d="M2124 476 c-66 -29 -69 -122 -5 -160 31 -18 36 -18 61 -4 24 14 28
14 37 0 5 -9 16 -13 26 -9 14 5 17 21 17 92 0 77 -2 85 -19 85 -11 0 -23 -5
-26 -10 -4 -7 -14 -5 -28 5 -25 18 -24 18 -63 1z m70 -58 c13 -19 14 -25 2
-43 -26 -39 -76 -26 -76 19 0 46 48 62 74 24z"/>
<path d="M2356 472 c-13 -12 -20 -14 -23 -4 -3 6 -13 12 -24 12 -18 0 -20 -6
-17 -87 3 -86 4 -88 27 -88 24 0 25 3 22 56 -3 65 16 92 50 71 15 -10 20 -8
30 9 19 36 -34 61 -65 31z"/>
</g>
</svg>
